<svg xmlns="http://www.w3.org/2000/svg" xmlns:xlink="http://www.w3.org/1999/xlink" width="1500" zoomAndPan="magnify" viewBox="0 0 1125 1124.99995" height="1500" preserveAspectRatio="xMidYMid meet" version="1.0"><defs><clipPath id="e83c5f41d4"><path d="M 69.773438 69.773438 L 1055.273438 69.773438 L 1055.273438 1055.273438 L 69.773438 1055.273438 Z M 69.773438 69.773438 " clip-rule="nonzero"/></clipPath><clipPath id="04f1dfc7aa"><path d="M 69.773438 318 L 1055.273438 318 L 1055.273438 1055.273438 L 69.773438 1055.273438 Z M 69.773438 318 " clip-rule="nonzero"/></clipPath><clipPath id="54df4adaa0"><path d="M 128 796 L 997 796 L 997 1055.273438 L 128 1055.273438 Z M 128 796 " clip-rule="nonzero"/></clipPath><clipPath id="9f4ced7624"><path d="M 326 307 L 799 307 L 799 1055.273438 L 326 1055.273438 Z M 326 307 " clip-rule="nonzero"/></clipPath><clipPath id="7c568a21a9"><path d="M 562 307 L 799 307 L 799 1055.273438 L 562 1055.273438 Z M 562 307 " clip-rule="nonzero"/></clipPath></defs><g clip-path="url(#e83c5f41d4)"><path fill="#9e69e2" d="M 1055.273438 562.523438 C 1055.273438 834.667969 834.667969 1055.273438 562.523438 1055.273438 C 290.382812 1055.273438 69.773438 834.664062 69.773438 562.523438 C 69.773438 290.382812 290.382812 69.773438 562.523438 69.773438 C 834.664062 69.773438 1055.273438 290.382812 1055.273438 562.523438 Z M 1055.273438 562.523438 " fill-opacity="1" fill-rule="nonzero"/></g><g clip-path="url(#04f1dfc7aa)"><path fill="#8e4fd2" d="M 1055.273438 562.523438 C 1055.273438 834.652344 834.652344 1055.273438 562.523438 1055.273438 C 290.398438 1055.273438 69.773438 834.652344 69.773438 562.523438 C 69.773438 473.5625 93.351562 390.121094 134.601562 318.074219 C 219.527344 466.417969 379.359375 566.375 562.523438 566.375 C 745.6875 566.375 905.546875 466.417969 990.445312 318.074219 C 1031.695312 390.117188 1055.273438 473.5625 1055.273438 562.523438 Z M 1055.273438 562.523438 " fill-opacity="1" fill-rule="nonzero"/></g><g clip-path="url(#54df4adaa0)"><path fill="#7038ba" d="M 996.109375 796.769531 L 996.109375 796.792969 C 912.777344 950.71875 749.847656 1055.273438 562.523438 1055.273438 C 375.199219 1055.273438 212.269531 950.71875 128.941406 796.792969 L 128.941406 796.769531 Z M 996.109375 796.769531 " fill-opacity="1" fill-rule="nonzero"/></g><g clip-path="url(#9f4ced7624)"><path fill="#ffd112" d="M 798.078125 386.074219 L 798.078125 995.410156 C 728.117188 1033.582031 647.847656 1055.273438 562.523438 1055.273438 C 477.203125 1055.273438 396.929688 1033.582031 326.96875 995.410156 L 326.96875 695.410156 C 326.96875 660.207031 355.496094 631.683594 390.675781 631.683594 L 500.894531 631.683594 C 523.007812 631.683594 543.929688 626.5625 562.527344 617.441406 C 609.03125 594.628906 641.035156 546.820312 641.035156 491.519531 L 641.035156 413.449219 C 641.035156 401.050781 631.007812 391.023438 618.628906 391.023438 L 506.433594 391.023438 C 494.042969 391.023438 484.015625 401.050781 484.015625 413.449219 L 484.015625 469.539062 C 484.015625 491.210938 475.21875 510.839844 461.015625 525.066406 C 446.789062 539.277344 427.175781 548.050781 405.480469 548.050781 C 362.113281 548.050781 326.96875 512.902344 326.96875 469.539062 L 326.96875 386.074219 C 326.96875 342.714844 362.113281 307.566406 405.480469 307.566406 L 719.570312 307.566406 C 762.9375 307.5625 798.078125 342.714844 798.078125 386.074219 Z M 798.078125 386.074219 " fill-opacity="1" fill-rule="nonzero"/></g><g clip-path="url(#7c568a21a9)"><path fill="#ff9f00" d="M 798.078125 386.074219 L 798.078125 995.410156 C 728.117188 1033.582031 647.847656 1055.273438 562.523438 1055.273438 L 562.523438 617.441406 C 609.027344 594.628906 641.035156 546.816406 641.035156 491.515625 L 641.035156 413.449219 C 641.035156 401.050781 631.003906 391.019531 618.628906 391.019531 L 562.523438 391.019531 L 562.523438 307.5625 L 719.570312 307.5625 C 762.9375 307.5625 798.078125 342.714844 798.078125 386.074219 Z M 798.078125 386.074219 " fill-opacity="1" fill-rule="nonzero"/></g><path fill="#ffffff" d="M 674.394531 733.003906 C 644.523438 703.109375 604.796875 686.675781 562.523438 686.675781 C 520.277344 686.675781 480.523438 703.109375 450.636719 733.003906 C 388.960938 794.695312 388.960938 895.054688 450.636719 956.761719 C 480.523438 986.636719 520.277344 1003.109375 562.523438 1003.109375 C 604.796875 1003.109375 644.523438 986.632812 674.394531 956.761719 C 736.085938 895.054688 736.085938 794.695312 674.394531 733.003906 Z M 482.546875 764.914062 C 503.914062 743.550781 532.320312 731.808594 562.523438 731.808594 C 585.066406 731.808594 606.585938 738.355469 624.945312 750.539062 L 468.207031 907.273438 C 439.140625 863.410156 443.914062 803.546875 482.546875 764.914062 Z M 642.5 924.84375 C 621.121094 946.191406 592.726562 957.972656 562.523438 957.972656 C 539.984375 957.972656 518.464844 951.410156 500.101562 939.207031 L 656.839844 782.46875 C 685.886719 826.355469 681.132812 886.222656 642.5 924.84375 Z M 642.5 924.84375 " fill-opacity="1" fill-rule="nonzero"/><path fill="#d0f6ff" d="M 674.386719 956.761719 C 644.515625 986.640625 604.789062 1003.101562 562.523438 1003.101562 L 562.523438 957.972656 C 592.726562 957.972656 621.125 946.207031 642.496094 924.84375 C 681.125 886.214844 685.894531 826.355469 656.847656 782.46875 L 562.53125 876.792969 L 562.53125 812.957031 L 624.953125 750.539062 C 606.59375 738.355469 585.074219 731.800781 562.53125 731.800781 L 562.53125 686.675781 C 604.789062 686.675781 644.515625 703.117188 674.394531 733.011719 C 736.09375 794.695312 736.09375 895.0625 674.386719 956.761719 Z M 674.386719 956.761719 " fill-opacity="1" fill-rule="nonzero"/></svg>