<svg xmlns="http://www.w3.org/2000/svg" xmlns:xlink="http://www.w3.org/1999/xlink" width="40" zoomAndPan="magnify" viewBox="0 0 30 30.000001" height="40" preserveAspectRatio="xMidYMid meet" version="1.0"><defs><clipPath id="069585f532"><path d="M 1.652344 1.167969 L 28.347656 1.167969 L 28.347656 27.863281 L 1.652344 27.863281 Z M 1.652344 1.167969 " clip-rule="nonzero"/></clipPath><clipPath id="fd4328e3bc"><path d="M 15 1.167969 C 7.628906 1.167969 1.652344 7.144531 1.652344 14.515625 C 1.652344 21.886719 7.628906 27.863281 15 27.863281 C 22.371094 27.863281 28.347656 21.886719 28.347656 14.515625 C 28.347656 7.144531 22.371094 1.167969 15 1.167969 " clip-rule="nonzero"/></clipPath><clipPath id="288629a419"><path d="M 7 4 L 23.847656 4 L 23.847656 23 L 7 23 Z M 7 4 " clip-rule="nonzero"/></clipPath><clipPath id="a3bed41cd8"><path d="M 6.433594 3.808594 L 23.847656 3.808594 L 23.847656 23.40625 L 6.433594 23.40625 Z M 6.433594 3.808594 " clip-rule="nonzero"/></clipPath></defs><g clip-path="url(#069585f532)"><g clip-path="url(#fd4328e3bc)"><path fill="#5e17eb" d="M 1.652344 1.167969 L 28.347656 1.167969 L 28.347656 27.863281 L 1.652344 27.863281 Z M 1.652344 1.167969 " fill-opacity="1" fill-rule="nonzero"/></g></g><path fill="#ffffff" d="M 10.652344 19.25 L 10.652344 13.792969 L 15.140625 9.394531 L 19.625 13.792969 L 19.625 19.25 Z M 10.652344 19.25 " fill-opacity="1" fill-rule="nonzero"/><g clip-path="url(#288629a419)"><path fill="#ffffff" d="M 10.652344 22.742188 L 10.652344 19.765625 L 20.15625 19.765625 L 20.15625 13.578125 L 15.140625 8.664062 L 10.125 13.578125 L 10.125 19.25 L 7.089844 19.25 L 7.089844 12.628906 L 15.140625 4.738281 L 23.191406 12.628906 L 23.191406 22.742188 Z M 10.652344 22.742188 " fill-opacity="1" fill-rule="nonzero"/></g><g clip-path="url(#a3bed41cd8)"><path fill="#333131" d="M 6.429688 12.363281 L 6.429688 19.898438 L 9.992188 19.898438 L 9.992188 23.390625 L 23.847656 23.390625 L 23.847656 12.363281 L 15.140625 3.824219 Z M 23.058594 22.613281 L 10.785156 22.613281 L 10.785156 19.898438 L 20.285156 19.898438 L 20.285156 13.527344 L 15.140625 8.480469 L 9.992188 13.527344 L 9.992188 19.121094 L 7.222656 19.121094 L 7.222656 12.683594 L 15.140625 4.921875 L 23.058594 12.683594 Z M 10.785156 19.121094 L 10.785156 13.847656 L 15.140625 9.578125 L 19.496094 13.847656 L 19.496094 19.121094 Z M 10.785156 19.121094 " fill-opacity="1" fill-rule="nonzero"/></g></svg>