<svg xmlns="http://www.w3.org/2000/svg" xmlns:xlink="http://www.w3.org/1999/xlink" width="480" zoomAndPan="magnify" viewBox="0 0 360 359.999987" height="480" preserveAspectRatio="xMidYMid meet" version="1.0"><defs><clipPath id="a110a1f844"><path d="M 75.847656 99.648438 L 283.621094 99.648438 L 283.621094 338.324219 L 75.847656 338.324219 Z M 75.847656 99.648438 " clip-rule="nonzero"/></clipPath><clipPath id="2f0f246117"><path d="M 123 21.167969 L 237.996094 21.167969 L 237.996094 54 L 123 54 Z M 123 21.167969 " clip-rule="nonzero"/></clipPath></defs><path fill="#ffffff" d="M 126.1875 287.710938 L 126.1875 221.273438 L 179.71875 167.710938 L 233.242188 221.273438 L 233.242188 287.710938 Z M 126.1875 287.710938 " fill-opacity="1" fill-rule="nonzero"/><path fill="#ffffff" d="M 126.1875 330.242188 L 126.1875 294.007812 L 239.542969 294.007812 L 239.542969 218.660156 L 179.71875 158.800781 L 119.886719 218.660156 L 119.886719 287.710938 L 83.679688 287.710938 L 83.679688 207.09375 L 179.71875 110.996094 L 275.753906 207.09375 L 275.753906 330.242188 Z M 126.1875 330.242188 " fill-opacity="1" fill-rule="nonzero"/><g clip-path="url(#a110a1f844)"><path fill="#1d1d1b" d="M 75.804688 203.832031 L 75.804688 295.582031 L 118.3125 295.582031 L 118.3125 338.113281 L 283.625 338.113281 L 283.625 203.832031 L 179.71875 99.859375 Z M 274.179688 328.664062 L 127.761719 328.664062 L 127.761719 295.582031 L 241.117188 295.582031 L 241.117188 218.007812 L 179.71875 156.570312 L 118.3125 218.007812 L 118.3125 286.132812 L 85.25 286.132812 L 85.25 207.746094 L 179.71875 113.226562 L 274.179688 207.746094 Z M 127.761719 286.132812 L 127.761719 221.925781 L 179.71875 169.9375 L 231.671875 221.925781 L 231.671875 286.132812 Z M 127.761719 286.132812 " fill-opacity="1" fill-rule="nonzero"/></g><g clip-path="url(#2f0f246117)"><path fill="#1b1919" d="M 232.042969 53.429688 C 230.617188 53.429688 229.199219 52.839844 228.179688 51.683594 C 228.101562 51.597656 227.988281 51.480469 227.84375 51.335938 C 227.699219 51.191406 227.585938 51.074219 227.496094 50.996094 L 227.316406 50.828125 C 201.441406 25.328125 159.34375 25.328125 133.472656 50.828125 L 133.289062 50.996094 C 133.203125 51.074219 133.089844 51.191406 132.945312 51.335938 C 132.804688 51.476562 132.683594 51.597656 132.605469 51.683594 C 130.710938 53.832031 127.449219 54.023438 125.316406 52.117188 C 123.183594 50.210938 122.992188 46.921875 124.886719 44.777344 C 125.167969 44.464844 125.417969 44.210938 125.640625 43.984375 C 125.839844 43.785156 126.058594 43.566406 126.324219 43.324219 C 140.863281 29.035156 160.058594 21.164062 180.394531 21.164062 C 200.726562 21.164062 219.925781 29.035156 234.464844 43.324219 C 234.730469 43.566406 234.949219 43.785156 235.144531 43.984375 C 235.371094 44.210938 235.621094 44.464844 235.902344 44.78125 C 237.796875 46.925781 237.601562 50.210938 235.46875 52.117188 C 234.484375 52.996094 233.261719 53.429688 232.042969 53.429688 " fill-opacity="1" fill-rule="nonzero"/></g><path fill="#1b1919" d="M 152.128906 71.152344 C 152.128906 71.152344 152.125 71.15625 152.125 71.15625 C 152.125 71.15625 152.128906 71.152344 152.128906 71.152344 Z M 148.183594 72.992188 C 147.007812 72.992188 145.820312 72.585938 144.851562 71.761719 C 142.671875 69.90625 142.402344 66.628906 144.246094 64.4375 C 144.53125 64.097656 144.792969 63.839844 144.984375 63.648438 L 145.085938 63.546875 C 145.273438 63.359375 145.492188 63.140625 145.753906 62.894531 C 152.578125 56.269531 161.082031 51.761719 170.34375 49.855469 C 179.390625 47.992188 188.75 48.679688 197.410156 51.839844 C 204.015625 54.238281 209.945312 57.957031 215.035156 62.894531 C 215.296875 63.140625 215.511719 63.359375 215.703125 63.550781 C 217.71875 65.582031 217.71875 68.871094 215.703125 70.902344 C 213.683594 72.929688 210.414062 72.929688 208.398438 70.898438 C 208.222656 70.71875 208.105469 70.605469 207.980469 70.488281 L 207.894531 70.410156 C 203.855469 66.480469 199.144531 63.519531 193.898438 61.617188 C 179.777344 56.457031 163.683594 59.910156 152.890625 70.410156 L 152.804688 70.488281 C 152.679688 70.605469 152.566406 70.71875 152.390625 70.898438 C 152.328125 70.960938 152.269531 71.019531 152.207031 71.078125 C 152.171875 71.113281 152.132812 71.152344 152.097656 71.1875 C 151.078125 72.378906 149.636719 72.992188 148.183594 72.992188 " fill-opacity="1" fill-rule="nonzero"/><path fill="#1b1919" d="M 193.152344 92.5625 C 191.6875 92.5625 190.230469 91.9375 189.207031 90.722656 C 189.171875 90.683594 189.0625 90.570312 188.964844 90.472656 L 188.824219 90.324219 C 188.777344 90.277344 188.660156 90.167969 188.566406 90.078125 C 186.28125 87.972656 183.332031 86.847656 180.234375 86.886719 L 180.152344 86.886719 C 177.210938 86.941406 174.394531 88.074219 172.226562 90.074219 C 172.125 90.167969 171.984375 90.308594 171.839844 90.453125 L 171.820312 90.476562 C 171.726562 90.570312 171.613281 90.683594 171.578125 90.722656 C 169.734375 92.914062 166.476562 93.1875 164.300781 91.335938 C 162.125 89.480469 161.851562 86.199219 163.695312 84.007812 C 164.003906 83.640625 164.289062 83.351562 164.519531 83.125 L 164.542969 83.097656 C 164.75 82.890625 164.984375 82.652344 165.25 82.410156 C 169.289062 78.679688 174.539062 76.578125 180.03125 76.492188 L 180.121094 76.492188 C 185.847656 76.421875 191.316406 78.519531 195.539062 82.410156 C 195.746094 82.601562 196.023438 82.855469 196.328125 83.183594 C 196.546875 83.402344 196.808594 83.671875 197.09375 84.007812 C 198.9375 86.199219 198.664062 89.480469 196.488281 91.335938 C 195.515625 92.160156 194.332031 92.5625 193.152344 92.5625 " fill-opacity="1" fill-rule="nonzero"/></svg>